<?xml version="1.0" encoding="utf-8"?>
<!-- Generator: Adobe Illustrator 22.0.1, SVG Export Plug-In . SVG Version: 6.00 Build 0)  -->
<svg version="1.1" id="indicator_elipse.svg" xmlns="http://www.w3.org/2000/svg" xmlns:xlink="http://www.w3.org/1999/xlink"
	 x="0px" y="0px" viewBox="0 0 79.9 50.9" style="enable-background:new 0 0 79.9 50.9;" xml:space="preserve">
<style type="text/css">
	.st0{fill:#FFFFFF;stroke:#D35E13;stroke-width:3.916;}
	.st1{fill:#D35E13;}
</style>
<path id="Rounded_Rectangle_1341" class="st0" d="M24.8,2h30.4C67.8,2,78,12.5,78,25.5S67.7,49,55.2,49H24.8C12.2,49,2,38.5,2,25.5
	S12.2,2,24.8,2z"/>
<path id="Rounded_Rectangle_1344" class="st1" d="M44.3,31.6c-0.5,0-0.9-0.5-0.9-1v-10c-0.1-0.5,0.3-0.9,0.7-1
	c0.5-0.1,0.9,0.3,1,0.7c0,0.1,0,0.2,0,0.3v10C45.2,31.1,44.8,31.5,44.3,31.6z M39.1,31.6c-0.5,0-0.9-0.5-0.9-1v-10
	c-0.1-0.5,0.3-0.9,0.7-1c0.5-0.1,0.9,0.3,1,0.7c0,0.1,0,0.2,0,0.3v10C40,31.1,39.7,31.5,39.1,31.6L39.1,31.6z M34,31.6
	c-0.5,0-0.9-0.5-0.9-1v-10c-0.1-0.5,0.3-0.9,0.7-1c0.5-0.1,0.9,0.3,1,0.7c0,0.1,0,0.2,0,0.3v10C34.9,31.1,34.5,31.5,34,31.6L34,31.6
	z"/>
</svg>
